<svg width="125" height="33" viewBox="0 0 125 33" fill="none" xmlns="http://www.w3.org/2000/svg">
<ellipse cx="31.1033" cy="19.8019" rx="3.52113" ry="3.56604" fill="#E5E5E5"/>
<ellipse cx="93.8967" cy="19.8019" rx="3.52113" ry="3.56604" fill="#E5E5E5"/>
<ellipse cx="121.479" cy="19.8019" rx="3.52113" ry="3.56604" fill="#E5E5E5"/>
<ellipse cx="3.52113" cy="19.8019" rx="3.52113" ry="3.56604" fill="#E5E5E5"/>
<path d="M62.5516 15.1301C60.6669 15.1301 58.9877 16.5253 58.3114 18.5516C61.0397 19.7484 64.0635 19.7484 66.7919 18.5516C66.1156 16.5253 64.4364 15.1301 62.5516 15.1301V15.1301Z" fill="#E5E5E5"/>
<path d="M77.192 0C76.6884 0 76.2808 0.483374 76.2808 1.08073C76.2808 6.45058 74.451 11.5619 71.4379 15.0373C69.7258 11.1598 66.3016 8.64583 62.5516 8.64583C58.8017 8.64583 55.3167 11.1598 53.6046 15.0373C50.5915 11.5619 48.8225 6.45058 48.8225 1.08073C48.8225 0.483374 48.4149 0 47.9112 0C47.4076 0 47 0.483374 47 1.08073V15.6389C47 19.0363 48.5252 22.231 50.9813 23.9787L56.2042 27.6525C56.4694 30.3343 58.3977 32.4219 60.7292 32.4219H64.3741C66.7056 32.4219 68.6339 30.3343 68.8991 27.6525L74.0612 23.9787C76.5173 22.231 78.1033 19.0363 78.1033 15.6389V1.08073C78.1033 0.483374 77.6957 0 77.192 0V0ZM68.27 20.1708C66.4502 21.1291 64.5263 21.6146 62.5516 21.6146C60.577 21.6146 58.6531 21.1291 56.8333 20.1708C56.4391 19.9639 56.222 19.4584 56.3109 18.9592C56.9312 15.488 59.5563 12.9688 62.5516 12.9688C65.547 12.9688 68.1721 15.488 68.7923 18.9592C68.8813 19.4584 68.6642 19.9639 68.27 20.1708Z" fill="#E5E5E5"/>
</svg>
