<svg width="125" height="33" viewBox="0 0 125 33" fill="none" xmlns="http://www.w3.org/2000/svg">
<g clip-path="url(#clip0)">
<path d="M72.3142 21.107C72.1513 20.5765 71.8751 20.0784 71.477 19.6603C70.4017 18.5373 68.7645 18.243 67.4539 18.8831C67.4434 18.885 67.4376 18.8802 67.4253 18.8831C65.9442 19.5488 63.6269 18.1497 62.4431 17.7659C61.7935 17.5554 61.202 17.0996 60.6325 16.6949C61.5316 16.7534 62.4783 17.2363 62.9183 17.4659C63.004 17.5097 63.0783 17.4697 63.0288 17.4097C62.625 16.9378 62.2917 16.4987 62.0916 16.0844L63.2307 17.1211L63.3869 16.9506L61.9259 15.621C61.8992 15.5057 61.8896 15.3929 61.8935 15.2805L63.5403 16.7796L63.6955 16.6091L61.9354 15.0085C61.9554 14.9362 61.983 14.8642 62.0173 14.7928L63.8403 16.45L63.9965 16.2791L62.1393 14.5913C62.1831 14.5304 62.2297 14.4723 62.284 14.4118L64.1508 16.1096L64.3061 15.9391L62.4383 14.2409C62.4831 14.1913 62.5354 14.1347 62.5945 14.0704L64.4613 15.7681L64.6175 15.5986L62.7508 13.8994C62.7945 13.8508 62.8451 13.7961 62.8945 13.7409L64.7613 15.4395L64.9165 15.269L63.0498 13.5708C63.0908 13.5251 63.1335 13.4785 63.1774 13.4285L65.0442 15.1276L65.1995 14.9572L63.3326 13.259C63.3832 13.2023 63.4346 13.1456 63.4879 13.0885L65.3547 14.7872L65.509 14.6167L63.6423 12.9175C63.6908 12.8656 63.7384 12.8133 63.787 12.7585L65.6538 14.4567L65.809 14.2857L63.9413 12.5898C63.9917 12.5332 64.0423 12.4765 64.0956 12.4189L65.9624 14.1171L66.1167 13.9475L64.2499 12.2493C64.3014 12.1927 64.3528 12.1365 64.4061 12.0788L66.2729 13.7776L66.4272 13.607L64.5614 11.9079C64.61 11.8565 64.6576 11.8036 64.7052 11.7503L66.572 13.448L66.7263 13.2775L64.8596 11.5794C64.8977 11.5384 64.9357 11.4965 64.9719 11.4565L66.8387 13.1547L66.9939 12.9837L65.1272 11.286C65.1795 11.2283 65.2309 11.1717 65.2824 11.115L67.1492 12.8132L67.3054 12.6426L65.4386 10.9445C65.4863 10.8916 65.5348 10.8392 65.5834 10.7854L67.4502 12.4846L67.6045 12.3136L65.7377 10.6159C65.7892 10.5592 65.8406 10.5025 65.8929 10.4449L67.7598 12.144L67.9131 11.9736L66.0482 10.2725C66.1005 10.2158 66.1511 10.1582 66.2044 10.1015L68.0712 11.8006L68.2255 11.6302L66.3587 9.93104C66.4083 9.87866 66.4559 9.82485 66.5035 9.77199L68.3703 11.4702L68.5265 11.2997L66.6587 9.60153C66.6997 9.55582 66.7406 9.51054 66.7826 9.4658L68.6493 11.164L68.8046 10.993L66.9378 9.29528C66.9854 9.24333 67.033 9.19 67.0807 9.1372L68.9474 10.8354L69.1027 10.6644L67.2359 8.96663C67.2787 8.91948 67.3216 8.87186 67.3645 8.82519L69.2313 10.5239L69.3865 10.3534L67.5197 8.65425C67.5711 8.59761 67.6235 8.54043 67.675 8.4847L69.5418 10.1825L69.6961 10.012L67.8293 8.31381C67.8788 8.26048 67.9274 8.20666 67.9741 8.15519L69.8409 9.85295L69.9961 9.68244L68.1293 7.98426C68.1817 7.92569 68.2331 7.87044 68.2845 7.8138L70.1513 9.51294L70.3056 9.34195L68.4389 7.6452C68.4922 7.58659 68.5436 7.52899 68.5951 7.47421L70.4619 9.1724L70.6162 9.00141L68.7513 7.30365C68.8008 7.24887 68.8484 7.1965 68.8951 7.1446L70.7619 8.84231L70.9171 8.67276L69.0504 6.97409C69.0904 6.93078 69.1265 6.89078 69.1627 6.85078L71.0295 8.54897L71.1847 8.37941L69.317 6.67931C69.3741 6.61691 69.4255 6.56026 69.4722 6.50879L71.339 8.20656L71.4942 8.0361L69.6274 6.33892C69.7074 6.25033 69.753 6.20036 69.753 6.20036C69.7597 6.19369 69.7654 6.18798 69.7721 6.18036L71.6389 7.87902L71.7932 7.70857L69.9264 6.01038C69.9797 5.95176 70.0321 5.8956 70.0826 5.83987L71.9494 7.53853L72.1047 7.36904L70.2378 5.66989C70.2921 5.60941 70.3435 5.55223 70.3931 5.50034L72.2599 7.19852L72.4161 7.02753L70.5493 5.32982C70.6055 5.26844 70.6522 5.21649 70.6931 5.17078L72.5599 6.86854L72.7151 6.69899L70.8502 5.00219C70.8921 4.95317 70.9341 4.91029 70.9779 4.87029L72.8371 6.56138L72.9932 6.39087L71.1665 4.72981C71.2388 4.6841 71.3132 4.64788 71.3875 4.61983L73.1476 6.22132L73.3038 6.05129L71.656 4.55215C71.7684 4.53785 71.8808 4.53689 71.998 4.55119L73.459 5.88083L73.6143 5.70984L72.4752 4.67311C72.8962 4.82837 73.3514 5.10934 73.8467 5.45553C73.9134 5.5022 73.981 5.44887 73.9286 5.36791C72.9238 3.8221 70.7817 3.35445 69.9474 4.2707C69.7702 4.46638 69.3883 4.88501 68.8987 5.42316C68.8987 5.42316 65.8509 8.77335 63.6308 11.2145C63.5384 11.315 63.447 11.4164 63.3584 11.514C62.4431 12.5189 61.7078 13.327 61.4516 13.608L59.2948 15.98C59.2824 15.9771 59.2695 15.97 59.2567 15.9672C59.1952 15.9534 59.0843 15.9105 58.929 15.8443L52.329 1.84198L55.9464 14.078C55.9464 14.078 55.9778 14.1923 56.0293 14.3913C51.5742 12.0503 44.6009 7.57758 44.6009 7.57758C44.6009 7.57758 56.4431 17.9192 56.8684 18.2659C56.886 18.3668 56.9113 18.4687 56.9355 18.5707L48.7341 27.5847L48.9955 27.8228L57.1675 19.3441C57.899 21.3966 59.3757 23.5463 57.828 24.6435C57.8242 24.6502 57.828 24.6568 57.8252 24.6645C56.4303 25.6445 56.126 27.7161 57.1718 29.3619C58.2457 31.0525 60.3315 31.6573 61.823 30.7105C62.7393 30.1286 63.1946 28.9504 63.5527 27.817C63.247 26.9065 62.9946 26.5788 62.5812 25.9274C62.3107 25.5017 61.9755 25.1463 61.6021 24.8644C60.7926 24.0948 58.4238 18.3487 58.6658 17.8125C61.5536 17.7696 65.2434 20.0155 65.6634 22.1042C65.6672 22.1042 65.6748 22.0985 65.6786 22.0966C65.7491 22.9033 66.0787 23.6681 66.6558 24.2711C67.8178 25.4854 69.6437 25.7444 70.9933 24.8872C71.1703 24.7749 71.337 24.6444 71.4885 24.4987C72.039 23.973 72.36 23.2796 72.4457 22.5233C72.76 22.4119 73.2153 22.3004 73.6467 22.3976C75.2411 22.8139 75.6717 21.5013 75.704 21.0909C75.7364 20.7023 73.4314 21.8509 72.3142 21.107ZM56.7651 16.8468C56.5594 16.5244 56.6555 16.0938 56.9784 15.8881C57.3032 15.6833 57.7313 15.7791 57.9361 16.1029C58.1418 16.4267 58.0466 16.8558 57.7228 17.0616C57.3999 17.2663 56.9698 17.1706 56.7651 16.8468ZM59.5924 25.2359C59.6734 25.2444 59.7543 25.2511 59.8343 25.2587C60.522 25.3683 61.2078 25.8083 61.6573 26.5141C62.4069 27.6951 62.2174 29.1619 61.2363 29.7847C60.2553 30.4085 58.8462 29.9562 58.0971 28.7761C57.348 27.596 57.5366 26.1274 58.5176 25.5044C58.8424 25.2969 59.2138 25.2197 59.5924 25.2359ZM70.7341 23.7063C70.6331 23.8015 70.5245 23.8891 70.4084 23.9634C69.496 24.5406 68.2521 24.352 67.4492 23.5119C67.0006 23.0433 66.751 22.4385 66.7453 21.8128C66.7405 21.1966 66.9739 20.6337 67.4016 20.2242C67.5016 20.1289 67.6111 20.0422 67.7273 19.9689C68.6388 19.3907 69.8817 19.5803 70.6846 20.4175C71.1342 20.8871 71.3827 21.4928 71.3884 22.1186C71.3932 22.7329 71.1589 23.2986 70.7341 23.7063Z" fill="#E5E5E5"/>
</g>
<circle cx="31.1033" cy="16.7934" r="3.52113" fill="#C4C4C4"/>
<circle cx="93.8967" cy="16.7934" r="3.52113" fill="#C4C4C4"/>
<circle cx="121.479" cy="16.7934" r="3.52113" fill="#C4C4C4"/>
<circle cx="3.52113" cy="16.7934" r="3.52113" fill="#C4C4C4"/>
<defs>
<clipPath id="clip0">
<rect width="31.1033" height="31.1033" fill="white" transform="translate(44.6009 0.948364)"/>
</clipPath>
</defs>
</svg>
